<mxfile host="app.diagrams.net" modified="2024-01-30T12:38:57.325Z" agent="Mozilla/5.0 (Windows NT 10.0; Win64; x64) AppleWebKit/537.36 (KHTML, like Gecko) Chrome/120.0.0.0 Safari/537.36 OPR/106.0.0.0" version="23.0.2" etag="YdXa7jWg1mCLQ54goIRW" type="github">
  <diagram name="Page-1" id="4612fCpNuncgwHPs84pl">
    <mxGraphModel>
      <root>
        <mxCell id="0" />
        <mxCell id="1" parent="0" />
      </root>
    </mxGraphModel>
  </diagram>
</mxfile>
